<svg width="42" height="42" viewBox="0 0 42 42" fill="none" xmlns="http://www.w3.org/2000/svg">
<path d="M21 42C32.598 42 42 32.598 42 21C42 9.40202 32.598 0 21 0C9.40202 0 0 9.40202 0 21C0 32.598 9.40202 42 21 42Z" fill="#6B56FD"/>
<path d="M21 10.0414C27.0754 10.0414 32 14.966 32 21.0414C32 26.6508 27.8012 31.2793 22.375 31.9561V23.7914H26.1562L26.5 21.0414H22.375V19.6664C22.375 18.9064 22.99 18.2914 23.75 18.2914H26.5V15.5414H23.75C21.4713 15.5414 19.625 17.3877 19.625 19.6664V21.0414H17.5625V23.7914H19.625V29.227V31.695V31.9562C14.1988 31.2794 10 26.6509 10 21.0414C10 14.966 14.9246 10.0414 21 10.0414Z" fill="white"/>
</svg>
