<svg xmlns="http://www.w3.org/2000/svg" width="42" height="42" viewBox="0 0 42 42">
  <g id="instagram" transform="translate(-246 -6632)">
    <circle id="Ellipse_17" data-name="Ellipse 17" cx="21" cy="21" r="21" transform="translate(246 6632)" fill="#6b56fd"/>
    <path id="Path_912" data-name="Path 912" d="M804,1552H787.981a3.993,3.993,0,0,0-3.981,3.982V1572a3.993,3.993,0,0,0,3.981,3.982H804a3.994,3.994,0,0,0,3.982-3.982v-16.018A3.993,3.993,0,0,0,804,1552Zm-12.322,10.491H800.3a4.567,4.567,0,1,1-8.627,0Zm13.306,0v8.991a1.5,1.5,0,0,1-1.5,1.5H788.5a1.5,1.5,0,0,1-1.5-1.5v-8.991h2.344a6.815,6.815,0,1,0,13.3,0h2.344Zm0-5.247a.752.752,0,0,1-.749.75h-1.5a.752.752,0,0,1-.749-.75v-1.5a.752.752,0,0,1,.749-.749h1.5a.751.751,0,0,1,.749.749Z" transform="translate(-528.545 5089.455)" fill="#fff"/>
  </g>
</svg>
