<svg xmlns="http://www.w3.org/2000/svg" width="42" height="42" viewBox="0 0 42 42">
  <g id="twitter" transform="translate(-384 -6632)">
    <circle id="Ellipse_19" data-name="Ellipse 19" cx="21" cy="21" r="21" transform="translate(384 6632)" fill="#6b56fd"/>
    <path id="Path_911" data-name="Path 911" d="M988.618,1552a12.618,12.618,0,1,0,12.618,12.618A12.617,12.617,0,0,0,988.618,1552Zm7.251,8.9c.007.16.011.322.011.484a10.642,10.642,0,0,1-16.382,8.965,7.819,7.819,0,0,0,.894.051,7.509,7.509,0,0,0,4.646-1.6,3.744,3.744,0,0,1-3.5-2.6,3.762,3.762,0,0,0,1.69-.064,3.744,3.744,0,0,1-3-3.669c0-.016,0-.031,0-.047a3.724,3.724,0,0,0,1.695.468,3.746,3.746,0,0,1-1.159-5,10.624,10.624,0,0,0,7.712,3.909,3.743,3.743,0,0,1,6.375-3.412,7.528,7.528,0,0,0,2.376-.909,3.751,3.751,0,0,1-1.645,2.07,7.477,7.477,0,0,0,2.148-.589A7.581,7.581,0,0,1,995.869,1560.9Z" transform="translate(-583.273 5088.545)" fill="#fff"/>
  </g>
</svg>
